# xmcd
#
# Track frame offsets:
#	150
#	10534
#	19815
#	30899
#	40165
#	50622
#	61463
#	70580
#	82314
#	90759
#
# Disc length: 1354 seconds
#
# Revision: 1
# Processed by: cddbd v1.5.2PL0 Copyright (c) Steve Scherf et al.
# Submitted via: audiograbber 1.83.01
#
DISCID=6c05480a
DTITLE=George Jones - You're In My Heart
DYEAR=1967
DGENRE=Country
TTITLE0=No Money In This Deal
TTITLE1=No, No, Never
TTITLE2=Eskimo Pie
TTITLE3=Boat Of Life
TTITLE4=It's Ok
TTITLE5=You're In My Heart
TTITLE6=Maybe Little Baby
TTITLE7=Let Him Know
TTITLE8=Hold Everything
TTITLE9=Farther Along
EXTD=
EXTT0=
EXTT1=
EXTT2=
EXTT3=
EXTT4=
EXTT5=
EXTT6=
EXTT7=
EXTT8=
EXTT9=
PLAYORDER=
